Coordinates
version=1
nRows=14
nColumns=24
inDegrees=yes

Units are S.I. units (second, meters, Newtons, ...)
Angles are in degrees.

endheader
time	pelvis_tilt	pelvis_list	pelvis_rotation	pelvis_tx	pelvis_ty	pelvis_tz	hip_flexion_r	hip_adduction_r	hip_rotation_r	knee_angle_r	ankle_angle_r	subtalar_angle_r	mtp_angle_r	hip_flexion_l	hip_adduction_l	hip_rotation_l	knee_angle_l	ankle_angle_l	subtalar_angle_l	mtp_angle_l	lumbar_extension	lumbar_bending	lumbar_rotation
      0.84633333	      1.03394121	     -1.38014061	     -1.39698243	     -0.49034729	      1.07135143	      0.35820630	      8.40899687	      7.04648493	     -6.14863479	    -12.80823166	      2.84426005	     -6.92394306	      1.94470380	     14.23642598	     -3.58609128	     -2.25019746	    -66.24085566	      2.49279523	     -4.82804701	      6.73182603	      2.87176151	      4.89393854	     -0.63569418
      0.85050000	      1.05577195	     -1.28064436	     -1.43934267	     -0.48550252	      1.07204302	      0.35852757	      8.02912795	      6.96396665	     -6.02483229	    -12.68252661	      3.00545633	     -6.88684435	      1.95341728	     14.75411380	     -3.45369262	     -2.01769598	    -66.02499509	      2.99545209	     -4.94290295	      6.70209839	      2.80669494	      4.75320197	     -0.53497126
      0.85466667	      1.07760445	     -1.16287179	     -1.52660663	     -0.48065013	      1.07272147	      0.35879496	      7.65768883	      6.85278318	     -5.93554037	    -12.58452161	      3.20658752	     -6.83900216	      1.96564477	     15.24419106	     -3.29701102	     -1.82726415	    -65.74316866	      3.59157269	     -4.98007681	      6.64784749	      2.73611828	      4.66039342	     -0.39885848
      0.85883333	      1.07322620	     -1.06441795	     -1.59497251	     -0.47574499	      1.07335776	      0.35912226	      7.29423757	      6.77098462	     -5.82957663	    -12.42008193	      3.25282968	     -6.82079348	      1.96760511	     15.75074566	     -3.16688738	     -1.63522396	    -65.37346253	      3.72817547	     -5.00349035	      6.63924317	      2.65921872	      4.61226196	     -0.37178065
      0.86300000	      1.11983310	     -0.98589430	     -1.64073958	     -0.47090712	      1.07402257	      0.35942483	      6.86753217	      6.70845032	     -5.70140180	    -12.26461271	      3.49778291	     -6.76630426	      1.97848995	     16.19613595	     -3.05207697	     -1.41082012	    -64.99654940	      4.45807368	     -5.06156418	      6.58346747	      2.60859847	      4.40631280	     -0.20186729
      0.86716667	      1.13455589	     -0.93390559	     -1.67053140	     -0.46603149	      1.07460221	      0.35977413	      6.45763500	      6.68196026	     -5.55051866	    -12.05799157	      3.60292578	     -6.70567369	      1.98387626	     16.66604170	     -2.97004877	     -1.17647231	    -64.54848721	      4.75184555	     -5.06123470	      6.54993005	      2.55881399	      4.30227387	     -0.11143532
      0.87133333	      1.16569395	     -0.86489344	     -1.73382063	     -0.46113961	      1.07520778	      0.36006589	      6.03397341	      6.62626158	     -5.43997097	    -11.86829122	      3.74929106	     -6.66225985	      1.98935263	     17.08782791	     -2.86551709	     -0.98354166	    -64.03046247	      5.15989898	     -5.07065112	      6.50835660	      2.50013272	      4.19640633	     -0.00382306
      0.87550000	      1.19390952	     -0.78683014	     -1.84167513	     -0.45629774	      1.07577445	      0.36032847	      5.62816752	      6.55449814	     -5.34308362	    -11.70843811	      3.93278856	     -6.59517952	      1.99661721	     17.49180566	     -2.75314312	     -0.83735649	    -63.45603032	      5.62829784	     -4.99989818	      6.42514885	      2.38059707	      4.13663268	      0.15660297
      0.87966667	      1.17203988	     -0.74433181	     -1.89309922	     -0.45144440	      1.07622404	      0.36053865	      5.25538782	      6.52201506	     -5.22525953	    -11.49926671	      3.98391600	     -6.56469173	      1.99813049	     17.95134080	     -2.66722295	     -0.62859920	    -62.83087489	      5.76487878	     -5.01745386	      6.40634790	      2.32657570	      4.10945649	      0.19448400
      0.88383333	      1.20449349	     -0.72051029	     -1.93713970	     -0.44647887	      1.07673718	      0.36087917	      4.79417563	      6.52336021	     -5.09926678	    -11.23838537	      4.10998057	     -6.51863404	      2.00074638	     18.32222294	     -2.61776021	     -0.44967736	    -62.15283642	      6.07955192	     -5.07344596	      6.36826047	      2.33816675	      4.00683842	      0.29115844
      0.88800000	      1.22523406	     -0.68274127	     -2.01889416	     -0.44157543	      1.07720118	      0.36114848	      4.36114811	      6.49702219	     -4.98144651	    -11.00895902	      4.24173801	     -6.46772359	      2.00269511	     18.68543849	     -2.54871701	     -0.30147151	    -61.41410114	      6.38234678	     -5.11382293	      6.31953598	      2.28070164	      3.94558767	      0.39425910
      0.89216667	      1.17912646	     -0.65883764	     -2.10021116	     -0.43672728	      1.07751877	      0.36130784	      4.01310791	      6.47674440	     -4.90524995	    -10.80108487	      4.30011669	     -6.44464438	      2.00315946	     19.11369308	     -2.48378884	     -0.14331959	    -60.62736509	      6.51997844	     -5.13997820	      6.30153219	      2.19736275	      3.95933584	      0.42421217
      0.89633333	      1.21885663	     -0.64887232	     -2.16281349	     -0.43172386	      1.07796051	      0.36163078	      3.52499623	      6.48833675	     -4.76451653	    -10.50648687	      4.43308732	     -6.38132240	      2.00386966	     19.41197625	     -2.45067001	     -0.00841638	    -59.77509336	      6.79470066	     -5.23385548	      6.25629525	      2.23098757	      3.89271513	      0.53620111
      0.90050000	      1.22817208	     -0.63682999	     -2.25098541	     -0.42678793	      1.07831211	      0.36186994	      3.08611456	      6.48581039	     -4.64321472	    -10.24645684	      4.54849675	     -6.32368980	      2.00319759	     19.72796526	     -2.41142777	      0.10418449	    -58.87380763	      7.00636075	     -5.32788546	      6.20291575	      2.17683692	      3.86829406	      0.64543935
